<mxfile host="app.diagrams.net" modified="2023-11-23T04:38:23.932Z" agent="Mozilla/5.0 (Windows NT 10.0; Win64; x64) AppleWebKit/537.36 (KHTML, like Gecko) Chrome/119.0.0.0 Safari/537.36" etag="vYnzJEKKKSLKJVqDhEFb" version="22.1.3" type="github">
  <diagram name="Page-1" id="OrNuxLd_W-b4k5TkJIm1">
    <mxGraphModel dx="880" dy="479" grid="1" gridSize="10" guides="1" tooltips="1" connect="1" arrows="1" fold="1" page="1" pageScale="1" pageWidth="850" pageHeight="1100" math="0" shadow="0">
      <root>
        <mxCell id="0" />
        <mxCell id="1" parent="0" />
        <mxCell id="VdnLeXwZeahwOFe-Xihl-1" value="sales" style="shape=umlActor;verticalLabelPosition=bottom;verticalAlign=top;html=1;outlineConnect=0;" vertex="1" parent="1">
          <mxGeometry x="170" y="160" width="50" height="80" as="geometry" />
        </mxCell>
        <mxCell id="VdnLeXwZeahwOFe-Xihl-2" value="melayani pelanggan" style="ellipse;whiteSpace=wrap;html=1;" vertex="1" parent="1">
          <mxGeometry x="290" y="140" width="110" height="40" as="geometry" />
        </mxCell>
        <mxCell id="VdnLeXwZeahwOFe-Xihl-5" value="membeli barang" style="ellipse;whiteSpace=wrap;html=1;" vertex="1" parent="1">
          <mxGeometry x="290" y="200" width="110" height="40" as="geometry" />
        </mxCell>
        <mxCell id="VdnLeXwZeahwOFe-Xihl-6" value="membayar" style="ellipse;whiteSpace=wrap;html=1;" vertex="1" parent="1">
          <mxGeometry x="290" y="260" width="110" height="40" as="geometry" />
        </mxCell>
        <mxCell id="VdnLeXwZeahwOFe-Xihl-8" value="mendapatkan bukti pembayaran" style="ellipse;whiteSpace=wrap;html=1;" vertex="1" parent="1">
          <mxGeometry x="290" y="330" width="110" height="40" as="geometry" />
        </mxCell>
        <mxCell id="VdnLeXwZeahwOFe-Xihl-9" value="" style="endArrow=classic;html=1;rounded=0;exitX=1;exitY=0.3333333333333333;exitDx=0;exitDy=0;exitPerimeter=0;entryX=0;entryY=0.5;entryDx=0;entryDy=0;" edge="1" parent="1" source="VdnLeXwZeahwOFe-Xihl-1" target="VdnLeXwZeahwOFe-Xihl-2">
          <mxGeometry width="50" height="50" relative="1" as="geometry">
            <mxPoint x="220" y="200" as="sourcePoint" />
            <mxPoint x="270" y="150" as="targetPoint" />
          </mxGeometry>
        </mxCell>
        <mxCell id="VdnLeXwZeahwOFe-Xihl-13" value="kasir" style="shape=umlActor;verticalLabelPosition=bottom;verticalAlign=top;html=1;outlineConnect=0;" vertex="1" parent="1">
          <mxGeometry x="170" y="290" width="50" height="80" as="geometry" />
        </mxCell>
        <mxCell id="VdnLeXwZeahwOFe-Xihl-14" value="membuat laporan penjualan" style="ellipse;whiteSpace=wrap;html=1;" vertex="1" parent="1">
          <mxGeometry x="290" y="380" width="110" height="40" as="geometry" />
        </mxCell>
        <mxCell id="VdnLeXwZeahwOFe-Xihl-15" value="menerima laporan" style="ellipse;whiteSpace=wrap;html=1;" vertex="1" parent="1">
          <mxGeometry x="290" y="440" width="110" height="40" as="geometry" />
        </mxCell>
        <mxCell id="VdnLeXwZeahwOFe-Xihl-17" value="pemilik toko" style="shape=umlActor;verticalLabelPosition=bottom;verticalAlign=top;html=1;outlineConnect=0;" vertex="1" parent="1">
          <mxGeometry x="170" y="400" width="50" height="80" as="geometry" />
        </mxCell>
        <mxCell id="VdnLeXwZeahwOFe-Xihl-19" value="" style="endArrow=classic;startArrow=classic;html=1;rounded=0;exitX=1;exitY=0.3333333333333333;exitDx=0;exitDy=0;exitPerimeter=0;" edge="1" parent="1" source="VdnLeXwZeahwOFe-Xihl-13">
          <mxGeometry width="50" height="50" relative="1" as="geometry">
            <mxPoint x="240" y="330" as="sourcePoint" />
            <mxPoint x="290" y="280" as="targetPoint" />
          </mxGeometry>
        </mxCell>
        <mxCell id="VdnLeXwZeahwOFe-Xihl-20" value="" style="endArrow=classic;startArrow=classic;html=1;rounded=0;entryX=0.018;entryY=0.225;entryDx=0;entryDy=0;entryPerimeter=0;" edge="1" parent="1" target="VdnLeXwZeahwOFe-Xihl-8">
          <mxGeometry width="50" height="50" relative="1" as="geometry">
            <mxPoint x="220" y="320" as="sourcePoint" />
            <mxPoint x="300" y="290" as="targetPoint" />
          </mxGeometry>
        </mxCell>
        <mxCell id="VdnLeXwZeahwOFe-Xihl-21" value="" style="endArrow=classic;startArrow=classic;html=1;rounded=0;entryX=0;entryY=0.25;entryDx=0;entryDy=0;entryPerimeter=0;exitX=1;exitY=0.3333333333333333;exitDx=0;exitDy=0;exitPerimeter=0;" edge="1" parent="1" source="VdnLeXwZeahwOFe-Xihl-13" target="VdnLeXwZeahwOFe-Xihl-14">
          <mxGeometry width="50" height="50" relative="1" as="geometry">
            <mxPoint x="230" y="330" as="sourcePoint" />
            <mxPoint x="302" y="349" as="targetPoint" />
          </mxGeometry>
        </mxCell>
        <mxCell id="VdnLeXwZeahwOFe-Xihl-22" value="" style="endArrow=classic;startArrow=classic;html=1;rounded=0;entryX=0;entryY=0.25;entryDx=0;entryDy=0;entryPerimeter=0;" edge="1" parent="1" source="VdnLeXwZeahwOFe-Xihl-17" target="VdnLeXwZeahwOFe-Xihl-15">
          <mxGeometry width="50" height="50" relative="1" as="geometry">
            <mxPoint x="230" y="327" as="sourcePoint" />
            <mxPoint x="300" y="400" as="targetPoint" />
          </mxGeometry>
        </mxCell>
        <mxCell id="VdnLeXwZeahwOFe-Xihl-23" value="pelanggan" style="shape=umlActor;verticalLabelPosition=bottom;verticalAlign=top;html=1;outlineConnect=0;" vertex="1" parent="1">
          <mxGeometry x="530" y="260" width="50" height="80" as="geometry" />
        </mxCell>
        <mxCell id="VdnLeXwZeahwOFe-Xihl-24" value="" style="endArrow=classic;startArrow=classic;html=1;rounded=0;exitX=1;exitY=0.5;exitDx=0;exitDy=0;" edge="1" parent="1" source="VdnLeXwZeahwOFe-Xihl-2">
          <mxGeometry width="50" height="50" relative="1" as="geometry">
            <mxPoint x="480" y="340" as="sourcePoint" />
            <mxPoint x="530" y="290" as="targetPoint" />
            <Array as="points">
              <mxPoint x="530" y="160" />
            </Array>
          </mxGeometry>
        </mxCell>
        <mxCell id="VdnLeXwZeahwOFe-Xihl-25" value="" style="endArrow=classic;startArrow=classic;html=1;rounded=0;exitX=1;exitY=0.5;exitDx=0;exitDy=0;" edge="1" parent="1" source="VdnLeXwZeahwOFe-Xihl-5">
          <mxGeometry width="50" height="50" relative="1" as="geometry">
            <mxPoint x="480" y="330" as="sourcePoint" />
            <mxPoint x="530" y="280" as="targetPoint" />
          </mxGeometry>
        </mxCell>
        <mxCell id="VdnLeXwZeahwOFe-Xihl-26" value="" style="endArrow=classic;startArrow=classic;html=1;rounded=0;exitX=1;exitY=0.5;exitDx=0;exitDy=0;entryX=0;entryY=0.3333333333333333;entryDx=0;entryDy=0;entryPerimeter=0;" edge="1" parent="1" source="VdnLeXwZeahwOFe-Xihl-6" target="VdnLeXwZeahwOFe-Xihl-23">
          <mxGeometry width="50" height="50" relative="1" as="geometry">
            <mxPoint x="480" y="340" as="sourcePoint" />
            <mxPoint x="530" y="290" as="targetPoint" />
          </mxGeometry>
        </mxCell>
        <mxCell id="VdnLeXwZeahwOFe-Xihl-27" value="" style="endArrow=classic;startArrow=classic;html=1;rounded=0;exitX=1;exitY=0.5;exitDx=0;exitDy=0;" edge="1" parent="1" source="VdnLeXwZeahwOFe-Xihl-8">
          <mxGeometry width="50" height="50" relative="1" as="geometry">
            <mxPoint x="480" y="330" as="sourcePoint" />
            <mxPoint x="530" y="280" as="targetPoint" />
          </mxGeometry>
        </mxCell>
      </root>
    </mxGraphModel>
  </diagram>
</mxfile>
